<svg width="109" height="42" viewBox="0 0 109 42" fill="none" xmlns="http://www.w3.org/2000/svg">
<path d="M11.2958 18.144C10.9331 18.144 10.6558 18.0427 10.4638 17.84C10.2718 17.6373 10.1758 17.3547 10.1758 16.992V7.728C10.1758 7.36533 10.2771 7.08267 10.4798 6.88C10.6931 6.67733 10.9811 6.576 11.3438 6.576C11.6638 6.576 11.9145 6.64 12.0958 6.768C12.2878 6.88533 12.4638 7.09333 12.6238 7.392L16.3198 14.144H15.7758L19.4718 7.392C19.6318 7.09333 19.8025 6.88533 19.9838 6.768C20.1758 6.64 20.4265 6.576 20.7358 6.576C21.0985 6.576 21.3758 6.67733 21.5678 6.88C21.7705 7.08267 21.8718 7.36533 21.8718 7.728V16.992C21.8718 17.3547 21.7758 17.6373 21.5838 17.84C21.3918 18.0427 21.1145 18.144 20.7518 18.144C20.3891 18.144 20.1065 18.0427 19.9038 17.84C19.7118 17.6373 19.6158 17.3547 19.6158 16.992V10.512H19.9678L16.9918 15.84C16.8638 16.0427 16.7251 16.1973 16.5758 16.304C16.4371 16.4 16.2505 16.448 16.0158 16.448C15.7811 16.448 15.5891 16.3947 15.4398 16.288C15.2905 16.1813 15.1571 16.032 15.0398 15.84L12.0318 10.496H12.4158V16.992C12.4158 17.3547 12.3198 17.6373 12.1278 17.84C11.9465 18.0427 11.6691 18.144 11.2958 18.144ZM26.6074 18.176C26.0314 18.176 25.5141 18.064 25.0554 17.84C24.5968 17.616 24.2394 17.312 23.9834 16.928C23.7274 16.544 23.5994 16.112 23.5994 15.632C23.5994 15.056 23.7488 14.6027 24.0474 14.272C24.3461 13.9307 24.8314 13.6907 25.5034 13.552C26.1754 13.4027 27.0661 13.328 28.1754 13.328H29.0234V14.576H28.1914C27.6474 14.576 27.2048 14.608 26.8634 14.672C26.5328 14.7253 26.2928 14.8213 26.1434 14.96C26.0048 15.0987 25.9354 15.2907 25.9354 15.536C25.9354 15.8347 26.0368 16.08 26.2394 16.272C26.4528 16.464 26.7568 16.56 27.1514 16.56C27.4608 16.56 27.7328 16.4907 27.9674 16.352C28.2128 16.2027 28.4048 16.0053 28.5434 15.76C28.6821 15.504 28.7514 15.216 28.7514 14.896V13.056C28.7514 12.5867 28.6448 12.256 28.4314 12.064C28.2181 11.8613 27.8554 11.76 27.3434 11.76C27.0554 11.76 26.7408 11.7973 26.3994 11.872C26.0688 11.936 25.7008 12.048 25.2954 12.208C25.0608 12.3147 24.8528 12.3413 24.6714 12.288C24.4901 12.224 24.3514 12.1173 24.2554 11.968C24.1594 11.808 24.1114 11.6373 24.1114 11.456C24.1114 11.264 24.1648 11.0827 24.2714 10.912C24.3781 10.7307 24.5541 10.5973 24.7994 10.512C25.3008 10.3093 25.7701 10.1707 26.2074 10.096C26.6554 10.0213 27.0661 9.984 27.4394 9.984C28.2608 9.984 28.9328 10.1067 29.4554 10.352C29.9888 10.5867 30.3888 10.9547 30.6554 11.456C30.9221 11.9467 31.0554 12.5813 31.0554 13.36V16.912C31.0554 17.3067 30.9594 17.6107 30.7674 17.824C30.5754 18.0373 30.2981 18.144 29.9354 18.144C29.5728 18.144 29.2901 18.0373 29.0874 17.824C28.8954 17.6107 28.7994 17.3067 28.7994 16.912V16.32L28.9114 16.416C28.8474 16.7787 28.7088 17.0933 28.4954 17.36C28.2928 17.616 28.0314 17.8187 27.7114 17.968C27.3914 18.1067 27.0234 18.176 26.6074 18.176ZM34.0737 18.128C33.679 18.128 33.375 18.016 33.1617 17.792C32.959 17.5573 32.8577 17.232 32.8577 16.816V11.344C32.8577 10.9173 32.959 10.592 33.1617 10.368C33.375 10.1333 33.679 10.016 34.0737 10.016C34.4577 10.016 34.751 10.1333 34.9537 10.368C35.167 10.592 35.2737 10.9173 35.2737 11.344V16.816C35.2737 17.232 35.1724 17.5573 34.9697 17.792C34.767 18.016 34.4684 18.128 34.0737 18.128ZM34.0737 8.704C33.6257 8.704 33.279 8.60267 33.0337 8.4C32.799 8.18667 32.6817 7.888 32.6817 7.504C32.6817 7.10933 32.799 6.81067 33.0337 6.608C33.279 6.39467 33.6257 6.288 34.0737 6.288C34.5217 6.288 34.863 6.39467 35.0977 6.608C35.3324 6.81067 35.4497 7.10933 35.4497 7.504C35.4497 7.888 35.3324 8.18667 35.0977 8.4C34.863 8.60267 34.5217 8.704 34.0737 8.704ZM39.9709 18.176C39.0216 18.176 38.3123 17.9147 37.8429 17.392C37.3736 16.8587 37.1389 16.0693 37.1389 15.024V7.808C37.1389 7.40267 37.2403 7.09867 37.4429 6.896C37.6563 6.68267 37.9603 6.576 38.3549 6.576C38.7389 6.576 39.0323 6.68267 39.2349 6.896C39.4483 7.09867 39.5549 7.40267 39.5549 7.808V14.928C39.5549 15.3653 39.6456 15.6907 39.8269 15.904C40.0189 16.1067 40.2696 16.208 40.5789 16.208C40.6643 16.208 40.7443 16.2027 40.8189 16.192C40.8936 16.1813 40.9736 16.176 41.0589 16.176C41.2296 16.1547 41.3469 16.208 41.4109 16.336C41.4856 16.4533 41.5229 16.6933 41.5229 17.056C41.5229 17.376 41.4589 17.6213 41.3309 17.792C41.2029 17.952 41.0056 18.0587 40.7389 18.112C40.6323 18.1227 40.5096 18.1333 40.3709 18.144C40.2323 18.1653 40.0989 18.176 39.9709 18.176ZM43.6831 18.128C43.2884 18.128 42.9844 18.016 42.7711 17.792C42.5684 17.5573 42.4671 17.232 42.4671 16.816V11.344C42.4671 10.9173 42.5684 10.592 42.7711 10.368C42.9844 10.1333 43.2884 10.016 43.6831 10.016C44.0671 10.016 44.3604 10.1333 44.5631 10.368C44.7764 10.592 44.8831 10.9173 44.8831 11.344V16.816C44.8831 17.232 44.7817 17.5573 44.5791 17.792C44.3764 18.016 44.0777 18.128 43.6831 18.128ZM43.6831 8.704C43.2351 8.704 42.8884 8.60267 42.6431 8.4C42.4084 8.18667 42.2911 7.888 42.2911 7.504C42.2911 7.10933 42.4084 6.81067 42.6431 6.608C42.8884 6.39467 43.2351 6.288 43.6831 6.288C44.1311 6.288 44.4724 6.39467 44.7071 6.608C44.9417 6.81067 45.0591 7.10933 45.0591 7.504C45.0591 7.888 44.9417 8.18667 44.7071 8.4C44.4724 8.60267 44.1311 8.704 43.6831 8.704ZM47.9643 18.144C47.5696 18.144 47.2656 18.0373 47.0523 17.824C46.8496 17.6107 46.7483 17.3067 46.7483 16.912V11.232C46.7483 10.8373 46.8496 10.5387 47.0523 10.336C47.2656 10.1227 47.559 10.016 47.9323 10.016C48.3163 10.016 48.6096 10.1227 48.8123 10.336C49.015 10.5387 49.1163 10.8373 49.1163 11.232V12.144L48.9403 11.616C49.1856 11.0933 49.5483 10.6933 50.0283 10.416C50.519 10.128 51.0736 9.984 51.6923 9.984C52.3216 9.984 52.839 10.1067 53.2443 10.352C53.6496 10.5867 53.9536 10.9493 54.1563 11.44C54.359 11.92 54.4603 12.5333 54.4603 13.28V16.912C54.4603 17.3067 54.3536 17.6107 54.1403 17.824C53.9376 18.0373 53.639 18.144 53.2443 18.144C52.8603 18.144 52.5616 18.0373 52.3483 17.824C52.1456 17.6107 52.0443 17.3067 52.0443 16.912V13.392C52.0443 12.848 51.943 12.4587 51.7403 12.224C51.5483 11.9787 51.2496 11.856 50.8443 11.856C50.3323 11.856 49.9216 12.016 49.6123 12.336C49.3136 12.656 49.1643 13.0827 49.1643 13.616V16.912C49.1643 17.7333 48.7643 18.144 47.9643 18.144ZM60.0399 21.056C59.4639 21.056 58.9093 21.008 58.3759 20.912C57.8533 20.816 57.3893 20.672 56.9839 20.48C56.7386 20.3733 56.5626 20.2347 56.4559 20.064C56.3599 19.8933 56.3173 19.712 56.3279 19.52C56.3493 19.328 56.4133 19.1573 56.5199 19.008C56.6373 18.8587 56.7813 18.752 56.9519 18.688C57.1226 18.6347 57.3039 18.6507 57.4959 18.736C57.9653 18.9493 58.3973 19.088 58.7919 19.152C59.1973 19.216 59.5439 19.248 59.8319 19.248C60.5146 19.248 61.0266 19.0933 61.3679 18.784C61.7093 18.4747 61.8799 18 61.8799 17.36V16.144H62.0239C61.8639 16.6347 61.5333 17.0347 61.0319 17.344C60.5306 17.6533 59.9759 17.808 59.3679 17.808C58.6639 17.808 58.0506 17.648 57.5279 17.328C57.0053 16.9973 56.5999 16.5387 56.3119 15.952C56.0239 15.3547 55.8799 14.6667 55.8799 13.888C55.8799 13.3013 55.9599 12.768 56.1199 12.288C56.2906 11.808 56.5253 11.3973 56.8239 11.056C57.1333 10.7147 57.5013 10.4533 57.9279 10.272C58.3653 10.08 58.8453 9.984 59.3679 9.984C59.9973 9.984 60.5519 10.1387 61.0319 10.448C61.5226 10.7467 61.8479 11.1413 62.0079 11.632L61.8479 12.144V11.232C61.8479 10.8373 61.9493 10.5387 62.1519 10.336C62.3653 10.1227 62.6639 10.016 63.0479 10.016C63.4319 10.016 63.7253 10.1227 63.9279 10.336C64.1306 10.5387 64.2319 10.8373 64.2319 11.232V17.088C64.2319 18.4 63.8693 19.3867 63.1439 20.048C62.4293 20.72 61.3946 21.056 60.0399 21.056ZM60.0879 16C60.4506 16 60.7599 15.9147 61.0159 15.744C61.2826 15.5733 61.4906 15.3333 61.6399 15.024C61.7893 14.704 61.8639 14.3253 61.8639 13.888C61.8639 13.2267 61.6986 12.7147 61.3679 12.352C61.0479 11.9787 60.6213 11.792 60.0879 11.792C59.7253 11.792 59.4106 11.8773 59.1439 12.048C58.8773 12.208 58.6693 12.448 58.5199 12.768C58.3813 13.0773 58.3119 13.4507 58.3119 13.888C58.3119 14.5493 58.4719 15.0667 58.7919 15.44C59.1119 15.8133 59.5439 16 60.0879 16ZM69.1157 18.176C68.6464 18.176 68.161 18.1333 67.6597 18.048C67.169 17.9627 66.721 17.8187 66.3157 17.616C66.1024 17.5093 65.9477 17.376 65.8517 17.216C65.7664 17.0453 65.729 16.8747 65.7397 16.704C65.7504 16.5333 65.8037 16.3787 65.8997 16.24C66.0064 16.1013 66.1397 16.0107 66.2997 15.968C66.4704 15.9147 66.657 15.9307 66.8597 16.016C67.297 16.1973 67.697 16.3253 68.0597 16.4C68.4224 16.4747 68.7797 16.512 69.1317 16.512C69.5904 16.512 69.921 16.4427 70.1237 16.304C70.337 16.1547 70.4437 15.9627 70.4437 15.728C70.4437 15.5147 70.3744 15.3547 70.2357 15.248C70.097 15.1413 69.8944 15.0667 69.6277 15.024L67.9477 14.72C67.2864 14.6027 66.7744 14.3627 66.4117 14C66.0597 13.6267 65.8837 13.152 65.8837 12.576C65.8837 12.0427 66.033 11.584 66.3317 11.2C66.6304 10.8053 67.041 10.5067 67.5637 10.304C68.097 10.0907 68.6997 9.984 69.3717 9.984C69.8517 9.984 70.2944 10.0267 70.6997 10.112C71.105 10.1973 71.4944 10.336 71.8677 10.528C72.0597 10.624 72.193 10.752 72.2677 10.912C72.353 11.072 72.3797 11.2373 72.3477 11.408C72.3264 11.5787 72.2624 11.7333 72.1557 11.872C72.049 12.0107 71.9104 12.1013 71.7397 12.144C71.5797 12.1867 71.393 12.1653 71.1797 12.08C70.8384 11.92 70.5237 11.808 70.2357 11.744C69.9477 11.6693 69.6704 11.632 69.4037 11.632C68.9237 11.632 68.577 11.712 68.3637 11.872C68.1504 12.0213 68.0437 12.2133 68.0437 12.448C68.0437 12.6293 68.1024 12.784 68.2197 12.912C68.3477 13.0293 68.5397 13.1093 68.7957 13.152L70.4757 13.456C71.169 13.5733 71.697 13.808 72.0597 14.16C72.4224 14.5013 72.6037 14.9707 72.6037 15.568C72.6037 16.3787 72.2837 17.0187 71.6437 17.488C71.0144 17.9467 70.1717 18.176 69.1157 18.176Z" fill="#467DF2"/>
<path d="M75.4867 18C75.0707 18 74.7507 17.888 74.5267 17.664C74.3027 17.44 74.1907 17.12 74.1907 16.704V8.016C74.1907 7.6 74.3027 7.28 74.5267 7.056C74.7507 6.832 75.0707 6.72 75.4867 6.72H79.3587C80.1587 6.72 80.8414 6.83733 81.4067 7.072C81.972 7.30667 82.3987 7.64267 82.6867 8.08C82.9854 8.51733 83.1347 9.04 83.1347 9.648C83.1347 10.32 82.9427 10.8907 82.5587 11.36C82.1747 11.8293 81.6467 12.144 80.9747 12.304V12.048C81.7534 12.1867 82.356 12.496 82.7827 12.976C83.22 13.4453 83.4387 14.0587 83.4387 14.816C83.4387 15.8187 83.092 16.6027 82.3987 17.168C81.7054 17.7227 80.7507 18 79.5347 18H75.4867ZM76.5587 16.16H79.1987C79.8387 16.16 80.308 16.0373 80.6067 15.792C80.9054 15.536 81.0547 15.1627 81.0547 14.672C81.0547 14.1813 80.9054 13.8133 80.6067 13.568C80.308 13.3227 79.8387 13.2 79.1987 13.2H76.5587V16.16ZM76.5587 11.36H78.9267C79.5454 11.36 80.004 11.2427 80.3027 11.008C80.6014 10.7733 80.7507 10.4213 80.7507 9.952C80.7507 9.49333 80.6014 9.14667 80.3027 8.912C80.004 8.67733 79.5454 8.56 78.9267 8.56H76.5587V11.36ZM88.8837 18.176C88.041 18.176 87.305 18.0107 86.6757 17.68C86.057 17.3493 85.577 16.8747 85.2357 16.256C84.8944 15.6373 84.7237 14.9067 84.7237 14.064C84.7237 13.4347 84.8197 12.8693 85.0117 12.368C85.2037 11.8667 85.481 11.44 85.8437 11.088C86.217 10.7253 86.6597 10.4533 87.1717 10.272C87.6837 10.08 88.2544 9.984 88.8837 9.984C89.7264 9.984 90.457 10.1493 91.0757 10.48C91.705 10.8107 92.1904 11.28 92.5317 11.888C92.8837 12.496 93.0597 13.2213 93.0597 14.064C93.0597 14.704 92.9584 15.2747 92.7557 15.776C92.5637 16.2773 92.2864 16.7093 91.9237 17.072C91.561 17.4347 91.1184 17.712 90.5957 17.904C90.0837 18.0853 89.513 18.176 88.8837 18.176ZM88.8837 16.368C89.2357 16.368 89.5397 16.2827 89.7957 16.112C90.0517 15.9413 90.2544 15.6907 90.4037 15.36C90.553 15.0187 90.6277 14.5867 90.6277 14.064C90.6277 13.2853 90.4677 12.7147 90.1477 12.352C89.8277 11.9787 89.4064 11.792 88.8837 11.792C88.5424 11.792 88.2384 11.872 87.9717 12.032C87.7157 12.192 87.513 12.4427 87.3637 12.784C87.225 13.1147 87.1557 13.5413 87.1557 14.064C87.1557 14.8427 87.3157 15.424 87.6357 15.808C87.9557 16.1813 88.3717 16.368 88.8837 16.368ZM98.3074 18.176C97.5714 18.176 96.9528 18.0533 96.4514 17.808C95.9608 17.5627 95.5928 17.2053 95.3474 16.736C95.1128 16.2667 94.9954 15.6747 94.9954 14.96V11.952H94.3234C94.0248 11.952 93.7901 11.872 93.6194 11.712C93.4594 11.552 93.3794 11.3333 93.3794 11.056C93.3794 10.7573 93.4594 10.5333 93.6194 10.384C93.7901 10.224 94.0248 10.144 94.3234 10.144H94.9954V8.928C94.9954 8.52267 95.1021 8.21867 95.3154 8.016C95.5288 7.80267 95.8274 7.696 96.2114 7.696C96.6061 7.696 96.9048 7.80267 97.1074 8.016C97.3101 8.21867 97.4114 8.52267 97.4114 8.928V10.144H98.9314C99.2301 10.144 99.4594 10.224 99.6194 10.384C99.7794 10.5333 99.8594 10.7573 99.8594 11.056C99.8594 11.3333 99.7794 11.552 99.6194 11.712C99.4594 11.872 99.2301 11.952 98.9314 11.952H97.4114V14.864C97.4114 15.312 97.5128 15.648 97.7154 15.872C97.9288 16.096 98.2648 16.208 98.7234 16.208C98.8834 16.208 99.0328 16.192 99.1714 16.16C99.3101 16.128 99.4381 16.1067 99.5554 16.096C99.7048 16.0853 99.8274 16.1333 99.9234 16.24C100.019 16.336 100.067 16.5547 100.067 16.896C100.067 17.152 100.025 17.376 99.9394 17.568C99.8541 17.76 99.7048 17.8987 99.4914 17.984C99.3528 18.0373 99.1608 18.08 98.9154 18.112C98.6808 18.1547 98.4781 18.176 98.3074 18.176Z" fill="#4F4E4F"/>
<path d="M27.5359 34.11C27.1759 34.11 26.8526 34.04 26.5659 33.9C26.2792 33.76 26.0559 33.57 25.8959 33.33C25.7359 33.09 25.6559 32.82 25.6559 32.52C25.6559 32.16 25.7492 31.8767 25.9359 31.67C26.1226 31.4567 26.4259 31.3067 26.8459 31.22C27.2659 31.1267 27.8226 31.08 28.5159 31.08H29.0459V31.86H28.5259C28.1859 31.86 27.9092 31.88 27.6959 31.92C27.4892 31.9533 27.3392 32.0133 27.2459 32.1C27.1592 32.1867 27.1159 32.3067 27.1159 32.46C27.1159 32.6467 27.1792 32.8 27.3059 32.92C27.4392 33.04 27.6292 33.1 27.8759 33.1C28.0692 33.1 28.2392 33.0567 28.3859 32.97C28.5392 32.8767 28.6592 32.7533 28.7459 32.6C28.8326 32.44 28.8759 32.26 28.8759 32.06V30.91C28.8759 30.6167 28.8092 30.41 28.6759 30.29C28.5426 30.1633 28.3159 30.1 27.9959 30.1C27.8159 30.1 27.6192 30.1233 27.4059 30.17C27.1992 30.21 26.9692 30.28 26.7159 30.38C26.5692 30.4467 26.4392 30.4633 26.3259 30.43C26.2126 30.39 26.1259 30.3233 26.0659 30.23C26.0059 30.13 25.9759 30.0233 25.9759 29.91C25.9759 29.79 26.0092 29.6767 26.0759 29.57C26.1426 29.4567 26.2526 29.3733 26.4059 29.32C26.7192 29.1933 27.0126 29.1067 27.2859 29.06C27.5659 29.0133 27.8226 28.99 28.0559 28.99C28.5692 28.99 28.9892 29.0667 29.3159 29.22C29.6492 29.3667 29.8992 29.5967 30.0659 29.91C30.2326 30.2167 30.3159 30.6133 30.3159 31.1V33.32C30.3159 33.5667 30.2559 33.7567 30.1359 33.89C30.0159 34.0233 29.8426 34.09 29.6159 34.09C29.3892 34.09 29.2126 34.0233 29.0859 33.89C28.9659 33.7567 28.9059 33.5667 28.9059 33.32V32.95L28.9759 33.01C28.9359 33.2367 28.8492 33.4333 28.7159 33.6C28.5892 33.76 28.4259 33.8867 28.2259 33.98C28.0259 34.0667 27.7959 34.11 27.5359 34.11ZM33.3523 34.11C32.9256 34.11 32.549 34.0067 32.2223 33.8C31.9023 33.5933 31.6523 33.2967 31.4723 32.91C31.2923 32.5233 31.2023 32.0667 31.2023 31.54C31.2023 31.0133 31.2923 30.56 31.4723 30.18C31.6523 29.8 31.9023 29.5067 32.2223 29.3C32.549 29.0933 32.9256 28.99 33.3523 28.99C33.739 28.99 34.079 29.0833 34.3723 29.27C34.6723 29.4567 34.8756 29.7 34.9823 30H34.8723V27.63C34.8723 27.3767 34.9356 27.1867 35.0623 27.06C35.189 26.9267 35.3756 26.86 35.6223 26.86C35.8623 26.86 36.049 26.9267 36.1823 27.06C36.3156 27.1867 36.3823 27.3767 36.3823 27.63V33.32C36.3823 33.5667 36.3156 33.7567 36.1823 33.89C36.0556 34.0233 35.8723 34.09 35.6323 34.09C35.3923 34.09 35.2056 34.0233 35.0723 33.89C34.9456 33.7567 34.8823 33.5667 34.8823 33.32V32.64L34.9923 33.03C34.899 33.3567 34.699 33.62 34.3923 33.82C34.0923 34.0133 33.7456 34.11 33.3523 34.11ZM33.8023 32.98C34.0223 32.98 34.2123 32.9267 34.3723 32.82C34.5323 32.7133 34.659 32.5567 34.7523 32.35C34.8456 32.1367 34.8923 31.8667 34.8923 31.54C34.8923 31.0533 34.7923 30.6967 34.5923 30.47C34.3923 30.2367 34.129 30.12 33.8023 30.12C33.589 30.12 33.399 30.17 33.2323 30.27C33.0723 30.37 32.9456 30.5267 32.8523 30.74C32.7656 30.9467 32.7223 31.2133 32.7223 31.54C32.7223 32.0267 32.8223 32.39 33.0223 32.63C33.2223 32.8633 33.4823 32.98 33.8023 32.98ZM38.3258 34.09C38.0792 34.09 37.8892 34.0233 37.7558 33.89C37.6292 33.7567 37.5658 33.5667 37.5658 33.32V29.77C37.5658 29.5233 37.6292 29.3367 37.7558 29.21C37.8892 29.0767 38.0725 29.01 38.3058 29.01C38.5458 29.01 38.7292 29.0767 38.8558 29.21C38.9825 29.3367 39.0458 29.5233 39.0458 29.77V30.41L38.9358 30.01C39.0692 29.7033 39.2758 29.4567 39.5558 29.27C39.8358 29.0833 40.1658 28.99 40.5458 28.99C40.9258 28.99 41.2425 29.08 41.4958 29.26C41.7492 29.44 41.9292 29.7167 42.0358 30.09H41.8958C42.0425 29.75 42.2658 29.4833 42.5658 29.29C42.8725 29.09 43.2225 28.99 43.6158 28.99C43.9958 28.99 44.3058 29.0667 44.5458 29.22C44.7925 29.3667 44.9758 29.5933 45.0958 29.9C45.2158 30.2 45.2758 30.5833 45.2758 31.05V33.32C45.2758 33.5667 45.2092 33.7567 45.0758 33.89C44.9492 34.0233 44.7658 34.09 44.5258 34.09C44.2792 34.09 44.0892 34.0233 43.9558 33.89C43.8292 33.7567 43.7658 33.5667 43.7658 33.32V31.1C43.7658 30.7733 43.7125 30.5367 43.6058 30.39C43.5058 30.2367 43.3325 30.16 43.0858 30.16C42.7992 30.16 42.5758 30.26 42.4158 30.46C42.2558 30.66 42.1758 30.9433 42.1758 31.31V33.32C42.1758 33.5667 42.1092 33.7567 41.9758 33.89C41.8492 34.0233 41.6658 34.09 41.4258 34.09C41.1858 34.09 40.9992 34.0233 40.8658 33.89C40.7325 33.7567 40.6658 33.5667 40.6658 33.32V31.1C40.6658 30.7733 40.6125 30.5367 40.5058 30.39C40.4058 30.2367 40.2325 30.16 39.9858 30.16C39.6992 30.16 39.4758 30.26 39.3158 30.46C39.1558 30.66 39.0758 30.9433 39.0758 31.31V33.32C39.0758 33.8333 38.8258 34.09 38.3258 34.09ZM47.1925 34.08C46.9459 34.08 46.7559 34.01 46.6225 33.87C46.4959 33.7233 46.4325 33.52 46.4325 33.26V29.84C46.4325 29.5733 46.4959 29.37 46.6225 29.23C46.7559 29.0833 46.9459 29.01 47.1925 29.01C47.4325 29.01 47.6159 29.0833 47.7425 29.23C47.8759 29.37 47.9425 29.5733 47.9425 29.84V33.26C47.9425 33.52 47.8792 33.7233 47.7525 33.87C47.6259 34.01 47.4392 34.08 47.1925 34.08ZM47.1925 28.19C46.9125 28.19 46.6959 28.1267 46.5425 28C46.3959 27.8667 46.3225 27.68 46.3225 27.44C46.3225 27.1933 46.3959 27.0067 46.5425 26.88C46.6959 26.7467 46.9125 26.68 47.1925 26.68C47.4725 26.68 47.6859 26.7467 47.8325 26.88C47.9792 27.0067 48.0525 27.1933 48.0525 27.44C48.0525 27.68 47.9792 27.8667 47.8325 28C47.6859 28.1267 47.4725 28.19 47.1925 28.19ZM49.8683 34.09C49.6217 34.09 49.4317 34.0233 49.2983 33.89C49.1717 33.7567 49.1083 33.5667 49.1083 33.32V29.77C49.1083 29.5233 49.1717 29.3367 49.2983 29.21C49.4317 29.0767 49.615 29.01 49.8483 29.01C50.0883 29.01 50.2717 29.0767 50.3983 29.21C50.525 29.3367 50.5883 29.5233 50.5883 29.77V30.34L50.4783 30.01C50.6317 29.6833 50.8583 29.4333 51.1583 29.26C51.465 29.08 51.8117 28.99 52.1983 28.99C52.5917 28.99 52.915 29.0667 53.1683 29.22C53.4217 29.3667 53.6117 29.5933 53.7383 29.9C53.865 30.2 53.9283 30.5833 53.9283 31.05V33.32C53.9283 33.5667 53.8617 33.7567 53.7283 33.89C53.6017 34.0233 53.415 34.09 53.1683 34.09C52.9283 34.09 52.7417 34.0233 52.6083 33.89C52.4817 33.7567 52.4183 33.5667 52.4183 33.32V31.12C52.4183 30.78 52.355 30.5367 52.2283 30.39C52.1083 30.2367 51.9217 30.16 51.6683 30.16C51.3483 30.16 51.0917 30.26 50.8983 30.46C50.7117 30.66 50.6183 30.9267 50.6183 31.26V33.32C50.6183 33.8333 50.3683 34.09 49.8683 34.09ZM58.6086 35.89C58.3619 35.89 58.1719 35.8233 58.0386 35.69C57.9119 35.5633 57.8486 35.3733 57.8486 35.12V29.77C57.8486 29.5233 57.9119 29.3367 58.0386 29.21C58.1719 29.0767 58.3552 29.01 58.5886 29.01C58.8352 29.01 59.0219 29.0767 59.1486 29.21C59.2752 29.3367 59.3386 29.5233 59.3386 29.77V30.45L59.2286 30.06C59.3286 29.74 59.5286 29.4833 59.8286 29.29C60.1352 29.09 60.4852 28.99 60.8786 28.99C61.3052 28.99 61.6786 29.0933 61.9986 29.3C62.3252 29.5067 62.5786 29.8 62.7586 30.18C62.9386 30.56 63.0286 31.0133 63.0286 31.54C63.0286 32.0667 62.9386 32.5233 62.7586 32.91C62.5786 33.2967 62.3286 33.5933 62.0086 33.8C61.6886 34.0067 61.3119 34.11 60.8786 34.11C60.4919 34.11 60.1486 34.0167 59.8486 33.83C59.5486 33.6367 59.3452 33.3867 59.2386 33.08H59.3586V35.12C59.3586 35.3733 59.2919 35.5633 59.1586 35.69C59.0319 35.8233 58.8486 35.89 58.6086 35.89ZM60.4286 32.98C60.6419 32.98 60.8286 32.9267 60.9886 32.82C61.1552 32.7133 61.2819 32.5567 61.3686 32.35C61.4619 32.1367 61.5086 31.8667 61.5086 31.54C61.5086 31.0533 61.4086 30.6967 61.2086 30.47C61.0086 30.2367 60.7486 30.12 60.4286 30.12C60.2152 30.12 60.0252 30.17 59.8586 30.27C59.6986 30.37 59.5719 30.5267 59.4786 30.74C59.3852 30.9467 59.3386 31.2133 59.3386 31.54C59.3386 32.0267 59.4386 32.39 59.6386 32.63C59.8386 32.8633 60.1019 32.98 60.4286 32.98ZM65.6121 34.11C65.2521 34.11 64.9287 34.04 64.6421 33.9C64.3554 33.76 64.1321 33.57 63.9721 33.33C63.8121 33.09 63.7321 32.82 63.7321 32.52C63.7321 32.16 63.8254 31.8767 64.0121 31.67C64.1987 31.4567 64.5021 31.3067 64.9221 31.22C65.3421 31.1267 65.8987 31.08 66.5921 31.08H67.1221V31.86H66.6021C66.2621 31.86 65.9854 31.88 65.7721 31.92C65.5654 31.9533 65.4154 32.0133 65.3221 32.1C65.2354 32.1867 65.1921 32.3067 65.1921 32.46C65.1921 32.6467 65.2554 32.8 65.3821 32.92C65.5154 33.04 65.7054 33.1 65.9521 33.1C66.1454 33.1 66.3154 33.0567 66.4621 32.97C66.6154 32.8767 66.7354 32.7533 66.8221 32.6C66.9087 32.44 66.9521 32.26 66.9521 32.06V30.91C66.9521 30.6167 66.8854 30.41 66.7521 30.29C66.6187 30.1633 66.3921 30.1 66.0721 30.1C65.8921 30.1 65.6954 30.1233 65.4821 30.17C65.2754 30.21 65.0454 30.28 64.7921 30.38C64.6454 30.4467 64.5154 30.4633 64.4021 30.43C64.2887 30.39 64.2021 30.3233 64.1421 30.23C64.0821 30.13 64.0521 30.0233 64.0521 29.91C64.0521 29.79 64.0854 29.6767 64.1521 29.57C64.2187 29.4567 64.3287 29.3733 64.4821 29.32C64.7954 29.1933 65.0887 29.1067 65.3621 29.06C65.6421 29.0133 65.8987 28.99 66.1321 28.99C66.6454 28.99 67.0654 29.0667 67.3921 29.22C67.7254 29.3667 67.9754 29.5967 68.1421 29.91C68.3087 30.2167 68.3921 30.6133 68.3921 31.1V33.32C68.3921 33.5667 68.3321 33.7567 68.2121 33.89C68.0921 34.0233 67.9187 34.09 67.6921 34.09C67.4654 34.09 67.2887 34.0233 67.1621 33.89C67.0421 33.7567 66.9821 33.5667 66.9821 33.32V32.95L67.0521 33.01C67.0121 33.2367 66.9254 33.4333 66.7921 33.6C66.6654 33.76 66.5021 33.8867 66.3021 33.98C66.1021 34.0667 65.8721 34.11 65.6121 34.11ZM70.2785 34.09C70.0318 34.09 69.8418 34.0233 69.7085 33.89C69.5818 33.7567 69.5185 33.5667 69.5185 33.32V29.77C69.5185 29.5233 69.5818 29.3367 69.7085 29.21C69.8418 29.0767 70.0251 29.01 70.2585 29.01C70.4985 29.01 70.6818 29.0767 70.8085 29.21C70.9351 29.3367 70.9985 29.5233 70.9985 29.77V30.34L70.8885 30.01C71.0418 29.6833 71.2685 29.4333 71.5685 29.26C71.8751 29.08 72.2218 28.99 72.6085 28.99C73.0018 28.99 73.3251 29.0667 73.5785 29.22C73.8318 29.3667 74.0218 29.5933 74.1485 29.9C74.2751 30.2 74.3385 30.5833 74.3385 31.05V33.32C74.3385 33.5667 74.2718 33.7567 74.1385 33.89C74.0118 34.0233 73.8251 34.09 73.5785 34.09C73.3385 34.09 73.1518 34.0233 73.0185 33.89C72.8918 33.7567 72.8285 33.5667 72.8285 33.32V31.12C72.8285 30.78 72.7651 30.5367 72.6385 30.39C72.5185 30.2367 72.3318 30.16 72.0785 30.16C71.7585 30.16 71.5018 30.26 71.3085 30.46C71.1218 30.66 71.0285 30.9267 71.0285 31.26V33.32C71.0285 33.8333 70.7785 34.09 70.2785 34.09ZM78.0157 34.11C77.4357 34.11 76.9357 34.0067 76.5157 33.8C76.1024 33.5867 75.7824 33.29 75.5557 32.91C75.3357 32.5233 75.2257 32.07 75.2257 31.55C75.2257 31.0433 75.3324 30.6 75.5457 30.22C75.7591 29.8333 76.0557 29.5333 76.4357 29.32C76.8224 29.1 77.2591 28.99 77.7457 28.99C78.0991 28.99 78.4191 29.05 78.7057 29.17C78.9924 29.2833 79.2391 29.45 79.4457 29.67C79.6524 29.8833 79.8091 30.1467 79.9157 30.46C80.0224 30.7667 80.0757 31.11 80.0757 31.49C80.0757 31.6167 80.0357 31.7133 79.9557 31.78C79.8757 31.84 79.7591 31.87 79.6057 31.87H76.4657V31.09H78.9857L78.8257 31.23C78.8257 30.9567 78.7857 30.73 78.7057 30.55C78.6257 30.3633 78.5091 30.2233 78.3557 30.13C78.2091 30.0367 78.0257 29.99 77.8057 29.99C77.5591 29.99 77.3491 30.0467 77.1757 30.16C77.0024 30.2733 76.8691 30.4367 76.7757 30.65C76.6824 30.8633 76.6357 31.12 76.6357 31.42V31.5C76.6357 32.0067 76.7524 32.38 76.9857 32.62C77.2257 32.86 77.5791 32.98 78.0457 32.98C78.2057 32.98 78.3891 32.96 78.5957 32.92C78.8024 32.88 78.9957 32.8167 79.1757 32.73C79.3291 32.6567 79.4657 32.6333 79.5857 32.66C79.7057 32.68 79.7991 32.7333 79.8657 32.82C79.9324 32.9067 79.9691 33.0067 79.9757 33.12C79.9891 33.2333 79.9657 33.3467 79.9057 33.46C79.8457 33.5667 79.7457 33.6567 79.6057 33.73C79.3791 33.8567 79.1224 33.95 78.8357 34.01C78.5557 34.0767 78.2824 34.11 78.0157 34.11ZM82.724 34.11C82.1307 34.11 81.6874 33.9467 81.394 33.62C81.1007 33.2867 80.954 32.7933 80.954 32.14V27.63C80.954 27.3767 81.0174 27.1867 81.144 27.06C81.2774 26.9267 81.4674 26.86 81.714 26.86C81.954 26.86 82.1374 26.9267 82.264 27.06C82.3974 27.1867 82.464 27.3767 82.464 27.63V32.08C82.464 32.3533 82.5207 32.5567 82.634 32.69C82.754 32.8167 82.9107 32.88 83.104 32.88C83.1574 32.88 83.2074 32.8767 83.254 32.87C83.3007 32.8633 83.3507 32.86 83.404 32.86C83.5107 32.8467 83.584 32.88 83.624 32.96C83.6707 33.0333 83.694 33.1833 83.694 33.41C83.694 33.61 83.654 33.7633 83.574 33.87C83.494 33.97 83.3707 34.0367 83.204 34.07C83.1374 34.0767 83.0607 34.0833 82.974 34.09C82.8874 34.1033 82.804 34.11 82.724 34.11Z" fill="#7E7E7E"/>
</svg>
